<svg xmlns="http://www.w3.org/2000/svg" viewBox="173 609 425 270" role="img" aria-label="Systems shelf illustration"><g data-part="shelf" style="--order:0"><polygon points="241.89,851.73 238.24,853.71 254.63,853.95 258.11,851.96" fill="#9b886b" stroke="#9b886b" stroke-width="1.35" stroke-linejoin="round"/><polygon points="242.87,828.9 239.84,830.34 253.5,830.51 256.41,829.07" fill="#9b886b" stroke="#9b886b" stroke-width="1.35" stroke-linejoin="round"/><polygon points="258.13,858.83 258.11,851.96 254.63,853.95 254.65,860.9" fill="#9b886b" stroke="#9b886b" stroke-width="1.35" stroke-linejoin="round"/><polygon points="256.43,837.33 256.41,829.07 253.5,830.51 253.52,838.84" fill="#9b886b" stroke="#9b886b" stroke-width="1.35" stroke-linejoin="round"/><polygon points="254.02,859.21 253.61,705.31 251.55,705.52 251.97,860.41" fill="#9b886b" stroke="#9b886b" stroke-width="1.35" stroke-linejoin="round"/><polygon points="244.1,705.29 241.98,705.49 251.55,705.52 253.61,705.31" fill="#9b886b" stroke="#9b886b" stroke-width="1.35" stroke-linejoin="round"/><polygon points="242.43,860.26 251.97,860.41 251.55,705.52 241.98,705.49" fill="#9b886b" stroke="#9b886b" stroke-width="1.35" stroke-linejoin="round"/><polygon points="239.86,838.66 253.52,838.84 253.5,830.51 239.84,830.34" fill="#9b886b" stroke="#9b886b" stroke-width="1.35" stroke-linejoin="round"/><polygon points="238.26,860.64 254.65,860.9 254.63,853.95 238.24,853.71" fill="#9b886b" stroke="#9b886b" stroke-width="1.35" stroke-linejoin="round"/><polygon points="218.07,828.5 218.04,820.69 197.19,829.39 197.22,837.66" fill="#9b886b" stroke="#9b886b" stroke-width="1.35" stroke-linejoin="round"/><polygon points="216.29,820.67 195.34,829.37 197.19,829.39 218.04,820.69" fill="#9b886b" stroke="#9b886b" stroke-width="1.35" stroke-linejoin="round"/><polygon points="537.75,856.05 537.39,858.13 554.61,858.38 554.77,856.29" fill="#9b886b" stroke="#9b886b" stroke-width="1.35" stroke-linejoin="round"/><polygon points="539.2,832.67 538.92,834.18 553.26,834.36 553.41,832.85" fill="#9b886b" stroke="#9b886b" stroke-width="1.35" stroke-linejoin="round"/><polygon points="554.74,863.33 554.77,856.29 554.61,858.38 554.58,865.5" fill="#9b886b" stroke="#9b886b" stroke-width="1.35" stroke-linejoin="round"/><polygon points="553.38,841.3 553.41,832.85 553.26,834.36 553.23,842.9" fill="#9b886b" stroke="#9b886b" stroke-width="1.35" stroke-linejoin="round"/><polygon points="551.15,863.72 551.65,706.07 551.54,706.28 551.04,864.99" fill="#9b886b" stroke="#9b886b" stroke-width="1.35" stroke-linejoin="round"/><polygon points="541.67,706.05 541.49,706.26 551.54,706.28 551.65,706.07" fill="#9b886b" stroke="#9b886b" stroke-width="1.35" stroke-linejoin="round"/><polygon points="541.02,864.83 551.04,864.99 551.54,706.28 541.49,706.26" fill="#9b886b" stroke="#9b886b" stroke-width="1.35" stroke-linejoin="round"/><polygon points="538.9,842.71 553.23,842.9 553.26,834.36 538.92,834.18" fill="#9b886b" stroke="#9b886b" stroke-width="1.35" stroke-linejoin="round"/><polygon points="537.37,865.23 554.58,865.5 554.61,858.38 537.39,858.13" fill="#9b886b" stroke="#9b886b" stroke-width="1.35" stroke-linejoin="round"/><polygon points="219.12,709.94 219.08,700.07 189.1,702.28 189.15,712.99" fill="#9b886b" stroke="#9b886b" stroke-width="1.35" stroke-linejoin="round"/><polygon points="217.34,700.07 187.21,702.27 189.1,702.28 219.08,700.07" fill="#9b886b" stroke="#9b886b" stroke-width="1.35" stroke-linejoin="round"/><polygon points="195.37,837.64 197.22,837.66 197.19,829.39 195.34,829.37" fill="#9b886b" stroke="#9b886b" stroke-width="1.35" stroke-linejoin="round"/><polygon points="580.1,833.1 580.8,842.84 580.83,834.3 580.13,825.06" fill="#9b886b" stroke="#9b886b" stroke-width="1.35" stroke-linejoin="round"/><polygon points="580.13,825.06 580.83,834.3 582.8,834.33 581.99,825.09" fill="#9b886b" stroke="#9b886b" stroke-width="1.35" stroke-linejoin="round"/><polygon points="580.51,711 581.55,714.24 581.59,703.18 580.55,700.84" fill="#9b886b" stroke="#9b886b" stroke-width="1.35" stroke-linejoin="round"/><polygon points="580.55,700.84 581.59,703.18 583.61,703.18 582.4,700.84" fill="#9b886b" stroke="#9b886b" stroke-width="1.35" stroke-linejoin="round"/><polygon points="195.63,837.41 582.69,842.63 582.72,834.4 195.6,829.44" fill="#b18e65" stroke="#896d4b" stroke-width="1.35" stroke-linejoin="round"/><polygon points="187.26,712.98 189.15,712.99 189.1,702.28 187.21,702.27" fill="#9b886b" stroke="#9b886b" stroke-width="1.35" stroke-linejoin="round"/><polygon points="580.8,842.84 582.77,842.86 582.8,834.33 580.83,834.3" fill="#9b886b" stroke="#9b886b" stroke-width="1.35" stroke-linejoin="round"/><polygon points="187.52,712.82 583.48,714.07 583.52,703.32 187.48,702.41" fill="#b18e65" stroke="#896d4b" stroke-width="1.35" stroke-linejoin="round"/><polygon points="581.55,714.24 583.57,714.25 583.61,703.18 581.59,703.18" fill="#9b886b" stroke="#9b886b" stroke-width="1.35" stroke-linejoin="round"/><polygon points="216.2,820.88 195.6,829.44 582.72,834.4 581.92,825.3" fill="#bea17e" stroke="#896d4b" stroke-width="1.35" stroke-linejoin="round"/><polygon points="217.25,700.22 187.48,702.41 583.52,703.32 582.33,701" fill="#bea17e" stroke="#896d4b" stroke-width="1.35" stroke-linejoin="round"/></g></svg>
