<svg xmlns="http://www.w3.org/2000/svg" viewBox="123 266 762 461" role="img" aria-label="Systems shelf illustration"><g data-part="shelf" style="--order:0"><polygon points="282.16,680.48 270.34,686.41 298.31,687.14 309.63,681.18" fill="#9b886b" stroke="#9b886b" stroke-width="1.35" stroke-linejoin="round"/><polygon points="309.8,693.01 309.63,681.18 298.31,687.14 298.49,699.19" fill="#9b886b" stroke="#9b886b" stroke-width="1.35" stroke-linejoin="round"/><polygon points="282.86,641.35 273.02,645.68 296.33,646.21 305.82,641.87" fill="#9b886b" stroke="#9b886b" stroke-width="1.35" stroke-linejoin="round"/><polygon points="306.03,656.12 305.82,641.87 296.33,646.21 296.55,660.68" fill="#9b886b" stroke="#9b886b" stroke-width="1.35" stroke-linejoin="round"/><polygon points="301.73,694.13 297.77,427.11 291,427.76 295.07,697.73" fill="#9b886b" stroke="#9b886b" stroke-width="1.35" stroke-linejoin="round"/><polygon points="281.54,427.03 274.6,427.68 291,427.76 297.77,427.11" fill="#9b886b" stroke="#9b886b" stroke-width="1.35" stroke-linejoin="round"/><polygon points="273.25,660.12 296.55,660.68 296.33,646.21 273.02,645.68" fill="#9b886b" stroke="#9b886b" stroke-width="1.35" stroke-linejoin="round"/><polygon points="270.53,698.43 298.49,699.19 298.31,687.14 270.34,686.41" fill="#9b886b" stroke="#9b886b" stroke-width="1.35" stroke-linejoin="round"/><polygon points="278.82,697.29 295.07,697.73 291,427.76 274.6,427.68" fill="#9b886b" stroke="#9b886b" stroke-width="1.35" stroke-linejoin="round"/><polygon points="241.59,640 241.36,626.55 172.12,653.51 172.41,668.35" fill="#9b886b" stroke="#9b886b" stroke-width="1.35" stroke-linejoin="round"/><polygon points="238.41,626.49 168.88,653.43 172.12,653.51 241.36,626.55" fill="#9b886b" stroke="#9b886b" stroke-width="1.35" stroke-linejoin="round"/><polygon points="791.46,693.51 789.24,699.95 819.66,700.75 821.29,694.28" fill="#9b886b" stroke="#9b886b" stroke-width="1.35" stroke-linejoin="round"/><polygon points="821.25,706.6 821.29,694.28 819.66,700.75 819.61,713.31" fill="#9b886b" stroke="#9b886b" stroke-width="1.35" stroke-linejoin="round"/><polygon points="793.87,652.79 792.06,657.48 817.4,658.06 818.81,653.35" fill="#9b886b" stroke="#9b886b" stroke-width="1.35" stroke-linejoin="round"/><polygon points="818.75,668.19 818.81,653.35 817.4,658.06 817.35,673.15" fill="#9b886b" stroke="#9b886b" stroke-width="1.35" stroke-linejoin="round"/><polygon points="814.66,707.81 815.6,429.58 814.57,430.29 813.64,711.72" fill="#9b886b" stroke="#9b886b" stroke-width="1.35" stroke-linejoin="round"/><polygon points="797.96,429.5 796.73,430.2 814.57,430.29 815.6,429.58" fill="#9b886b" stroke="#9b886b" stroke-width="1.35" stroke-linejoin="round"/><polygon points="792.02,672.54 817.35,673.15 817.4,658.06 792.06,657.48" fill="#9b886b" stroke="#9b886b" stroke-width="1.35" stroke-linejoin="round"/><polygon points="789.21,712.49 819.61,713.31 819.66,700.75 789.24,699.95" fill="#9b886b" stroke="#9b886b" stroke-width="1.35" stroke-linejoin="round"/><polygon points="795.98,711.24 813.64,711.72 814.57,430.29 796.73,430.2" fill="#9b886b" stroke="#9b886b" stroke-width="1.35" stroke-linejoin="round"/><polygon points="242.77,434.69 242.48,417.57 140.62,425.09 141.02,444.83" fill="#9b886b" stroke="#9b886b" stroke-width="1.35" stroke-linejoin="round"/><polygon points="239.52,417.56 137.24,425.07 140.62,425.09 242.48,417.57" fill="#9b886b" stroke="#9b886b" stroke-width="1.35" stroke-linejoin="round"/><polygon points="169.17,668.27 172.41,668.35 172.12,653.51 168.88,653.43" fill="#9b886b" stroke="#9b886b" stroke-width="1.35" stroke-linejoin="round"/><polygon points="869.02,654.01 869.09,640.35 865.36,669.86 865.28,684.98" fill="#896d4b" stroke="#896d4b" stroke-width="1.35" stroke-linejoin="round"/><polygon points="869.17,654.02 869.24,639.89 865.46,669.86 865.38,685.55" fill="#9b886b" stroke="#9b886b" stroke-width="1.35" stroke-linejoin="round"/><polygon points="865.98,639.82 861.83,669.78 865.46,669.86 869.24,639.89" fill="#9b886b" stroke="#9b886b" stroke-width="1.35" stroke-linejoin="round"/><polygon points="870.4,437.9 870.49,420.39 865.18,428.71 865.07,449.04" fill="#896d4b" stroke="#896d4b" stroke-width="1.35" stroke-linejoin="round"/><polygon points="870.55,438.09 870.65,420.1 865.29,428.47 865.18,449.41" fill="#9b886b" stroke="#9b886b" stroke-width="1.35" stroke-linejoin="round"/><polygon points="867.38,420.08 861.49,428.46 865.29,428.47 870.65,420.1" fill="#9b886b" stroke="#9b886b" stroke-width="1.35" stroke-linejoin="round"/><polygon points="169.92,667.76 865.28,684.98 865.36,669.86 169.64,653.45" fill="#b18e65" stroke="#896d4b" stroke-width="1.35" stroke-linejoin="round"/><polygon points="137.65,444.81 141.02,444.83 140.62,425.09 137.24,425.07" fill="#9b886b" stroke="#9b886b" stroke-width="1.35" stroke-linejoin="round"/><polygon points="861.76,685.46 865.38,685.55 865.46,669.86 861.83,669.78" fill="#9b886b" stroke="#9b886b" stroke-width="1.35" stroke-linejoin="round"/><polygon points="138.45,444.47 865.07,449.04 865.18,428.71 138.06,425.29" fill="#b18e65" stroke="#896d4b" stroke-width="1.35" stroke-linejoin="round"/><polygon points="861.38,449.38 865.18,449.41 865.29,428.47 861.49,428.46" fill="#9b886b" stroke="#9b886b" stroke-width="1.35" stroke-linejoin="round"/><polygon points="238.01,626.93 169.64,653.45 865.36,669.86 869.09,640.35" fill="#bea17e" stroke="#896d4b" stroke-width="1.35" stroke-linejoin="round"/><polygon points="239.13,417.84 138.06,425.29 865.18,428.71 870.49,420.39" fill="#bea17e" stroke="#896d4b" stroke-width="1.35" stroke-linejoin="round"/></g></svg>
