<svg xmlns="http://www.w3.org/2000/svg" viewBox="118 235 781 490" role="img" aria-label="Talks shelf illustration"><g data-part="shelf" style="--order:0"><polygon points="769.54,681.75 773.41,687.83 802.4,687.21 797.99,681.15" fill="#9b886b" stroke="#9b886b" stroke-width="1.35" stroke-linejoin="round"/><polygon points="769.52,693.6 773.39,699.9 773.41,687.83 769.54,681.75" fill="#9b886b" stroke="#9b886b" stroke-width="1.35" stroke-linejoin="round"/><polygon points="772.31,642.38 775.58,646.82 799.74,646.36 796.09,641.94" fill="#9b886b" stroke="#9b886b" stroke-width="1.35" stroke-linejoin="round"/><polygon points="772.29,656.66 775.55,661.32 775.58,646.82 772.31,642.38" fill="#9b886b" stroke="#9b886b" stroke-width="1.35" stroke-linejoin="round"/><polygon points="776.27,694.76 778.59,698.44 779.18,427.82 776.83,427.11" fill="#9b886b" stroke="#9b886b" stroke-width="1.35" stroke-linejoin="round"/><polygon points="775.55,661.32 799.69,660.85 799.74,646.36 775.58,646.82" fill="#9b886b" stroke="#9b886b" stroke-width="1.35" stroke-linejoin="round"/><polygon points="773.39,699.9 802.36,699.26 802.4,687.21 773.41,687.83" fill="#9b886b" stroke="#9b886b" stroke-width="1.35" stroke-linejoin="round"/><polygon points="776.83,427.11 779.18,427.82 796.19,427.74 793.65,427.04" fill="#9b886b" stroke="#9b886b" stroke-width="1.35" stroke-linejoin="round"/><polygon points="778.59,698.44 795.43,698.06 796.19,427.74 779.18,427.82" fill="#9b886b" stroke="#9b886b" stroke-width="1.35" stroke-linejoin="round"/><polygon points="274.26,704.38 274.05,692.15 268.25,698.64 268.46,711.11" fill="#9b886b" stroke="#9b886b" stroke-width="1.35" stroke-linejoin="round"/><polygon points="243.59,692.79 237.17,699.31 268.25,698.64 274.05,692.15" fill="#9b886b" stroke="#9b886b" stroke-width="1.35" stroke-linejoin="round"/><polygon points="270.6,666.36 270.35,651.61 265.45,656.35 265.7,671.34" fill="#9b886b" stroke="#9b886b" stroke-width="1.35" stroke-linejoin="round"/><polygon points="244.88,652.08 239.55,656.84 265.45,656.35 270.35,651.61" fill="#9b886b" stroke="#9b886b" stroke-width="1.35" stroke-linejoin="round"/><polygon points="839.84,640.71 868.48,669.79 868.57,654.9 839.9,627.23" fill="#9b886b" stroke="#9b886b" stroke-width="1.35" stroke-linejoin="round"/><polygon points="839.9,627.23 868.57,654.9 871.94,654.83 842.96,627.17" fill="#9b886b" stroke="#9b886b" stroke-width="1.35" stroke-linejoin="round"/><polygon points="266.71,705.9 262,429.25 258.46,430.01 263.25,709.83" fill="#9b886b" stroke="#9b886b" stroke-width="1.35" stroke-linejoin="round"/><polygon points="239.82,671.85 265.7,671.34 265.45,656.35 239.55,656.84" fill="#9b886b" stroke="#9b886b" stroke-width="1.35" stroke-linejoin="round"/><polygon points="237.4,711.8 268.46,711.11 268.25,698.64 237.17,699.31" fill="#9b886b" stroke="#9b886b" stroke-width="1.35" stroke-linejoin="round"/><polygon points="243.98,429.33 240.22,430.08 258.46,430.01 262,429.25" fill="#9b886b" stroke="#9b886b" stroke-width="1.35" stroke-linejoin="round"/><polygon points="245.21,710.23 263.25,709.83 258.46,430.01 240.22,430.08" fill="#9b886b" stroke="#9b886b" stroke-width="1.35" stroke-linejoin="round"/><polygon points="838.84,434.69 880.92,445.62 881.04,425.78 838.91,417.51" fill="#9b886b" stroke="#9b886b" stroke-width="1.35" stroke-linejoin="round"/><polygon points="838.91,417.51 881.04,425.78 884.57,425.77 841.98,417.5" fill="#9b886b" stroke="#9b886b" stroke-width="1.35" stroke-linejoin="round"/><polygon points="197.82,652.51 197.55,638.45 156.79,668.67 157.12,684.26" fill="#9b886b" stroke="#9b886b" stroke-width="1.35" stroke-linejoin="round"/><polygon points="194.22,638.51 153.08,668.74 156.79,668.67 197.55,638.45" fill="#9b886b" stroke="#9b886b" stroke-width="1.35" stroke-linejoin="round"/><polygon points="868.48,669.79 871.86,669.72 871.94,654.83 868.57,654.9" fill="#9b886b" stroke="#9b886b" stroke-width="1.35" stroke-linejoin="round"/><polygon points="196.37,437.7 196.02,419.79 135.54,428.84 135.99,449.66" fill="#9b886b" stroke="#9b886b" stroke-width="1.35" stroke-linejoin="round"/><polygon points="192.69,419.8 131.65,428.86 135.54,428.84 196.02,419.79" fill="#9b886b" stroke="#9b886b" stroke-width="1.35" stroke-linejoin="round"/><polygon points="153.92,683.77 871.47,669.2 871.55,654.85 153.6,668.74" fill="#b18e65" stroke="#896d4b" stroke-width="1.35" stroke-linejoin="round"/><polygon points="880.92,445.62 884.45,445.6 884.57,425.77 881.04,425.78" fill="#9b886b" stroke="#9b886b" stroke-width="1.35" stroke-linejoin="round"/><polygon points="153.41,684.33 157.12,684.26 156.79,668.67 153.08,668.74" fill="#9b886b" stroke="#9b886b" stroke-width="1.35" stroke-linejoin="round"/><polygon points="132.65,449.31 884.03,445.25 884.15,425.99 132.21,429.08" fill="#b18e65" stroke="#896d4b" stroke-width="1.35" stroke-linejoin="round"/><polygon points="132.1,449.68 135.99,449.66 135.54,428.84 131.65,428.86" fill="#9b886b" stroke="#9b886b" stroke-width="1.35" stroke-linejoin="round"/><polygon points="194.04,638.98 153.6,668.74 871.55,654.85 843.06,627.62" fill="#bea17e" stroke="#896d4b" stroke-width="1.35" stroke-linejoin="round"/><polygon points="192.51,420.09 132.21,429.08 884.15,425.99 842.07,417.78" fill="#bea17e" stroke="#896d4b" stroke-width="1.35" stroke-linejoin="round"/></g></svg>
