<svg xmlns="http://www.w3.org/2000/svg" viewBox="181 573 426 306" role="img" aria-label="Weightlifting shelf illustration"><g data-part="shelf" style="--order:0"><polygon points="523.47,852.35 526.65,854.35 543.14,854.15 539.79,852.15" fill="#9b886b" stroke="#9b886b" stroke-width="1.35" stroke-linejoin="round"/><polygon points="525.16,829.42 527.82,830.87 541.56,830.73 538.77,829.28" fill="#9b886b" stroke="#9b886b" stroke-width="1.35" stroke-linejoin="round"/><polygon points="523.45,859.23 526.63,861.31 526.65,854.35 523.47,852.35" fill="#9b886b" stroke="#9b886b" stroke-width="1.35" stroke-linejoin="round"/><polygon points="525.14,837.69 527.79,839.22 527.82,830.87 525.16,829.42" fill="#9b886b" stroke="#9b886b" stroke-width="1.35" stroke-linejoin="round"/><polygon points="527.52,859.62 529.39,860.83 529.82,705.65 527.94,705.44" fill="#9b886b" stroke="#9b886b" stroke-width="1.35" stroke-linejoin="round"/><polygon points="527.94,705.44 529.82,705.65 539.45,705.63 537.5,705.42" fill="#9b886b" stroke="#9b886b" stroke-width="1.35" stroke-linejoin="round"/><polygon points="529.39,860.83 538.99,860.71 539.45,705.63 529.82,705.65" fill="#9b886b" stroke="#9b886b" stroke-width="1.35" stroke-linejoin="round"/><polygon points="527.79,839.22 541.53,839.07 541.56,830.73 527.82,830.87" fill="#9b886b" stroke="#9b886b" stroke-width="1.35" stroke-linejoin="round"/><polygon points="526.63,861.31 543.12,861.1 543.14,854.15 526.65,854.35" fill="#9b886b" stroke="#9b886b" stroke-width="1.35" stroke-linejoin="round"/><polygon points="226.32,855.96 226.14,858.05 243.32,857.84 243.3,855.76" fill="#9b886b" stroke="#9b886b" stroke-width="1.35" stroke-linejoin="round"/><polygon points="227.64,832.57 227.51,834.09 241.82,833.93 241.82,832.42" fill="#9b886b" stroke="#9b886b" stroke-width="1.35" stroke-linejoin="round"/><polygon points="563.78,828.93 583.04,838.17 583.07,829.88 563.81,821.1" fill="#9b886b" stroke="#9b886b" stroke-width="1.35" stroke-linejoin="round"/><polygon points="563.81,821.1 583.07,829.88 584.94,829.86 565.57,821.09" fill="#9b886b" stroke="#9b886b" stroke-width="1.35" stroke-linejoin="round"/><polygon points="239.78,863.26 239.32,706.06 239.3,706.27 239.77,864.52" fill="#9b886b" stroke="#9b886b" stroke-width="1.35" stroke-linejoin="round"/><polygon points="229.35,706.08 229.27,706.29 239.3,706.27 239.32,706.06" fill="#9b886b" stroke="#9b886b" stroke-width="1.35" stroke-linejoin="round"/><polygon points="229.78,864.65 239.77,864.52 239.3,706.27 229.27,706.29" fill="#9b886b" stroke="#9b886b" stroke-width="1.35" stroke-linejoin="round"/><polygon points="227.54,842.61 241.85,842.44 241.82,833.93 227.51,834.09" fill="#9b886b" stroke="#9b886b" stroke-width="1.35" stroke-linejoin="round"/><polygon points="226.17,865.15 243.34,864.93 243.32,857.84 226.14,858.05" fill="#9b886b" stroke="#9b886b" stroke-width="1.35" stroke-linejoin="round"/><polygon points="562.85,710.1 590.55,713.18 590.59,702.44 562.88,700.2" fill="#9b886b" stroke="#9b886b" stroke-width="1.35" stroke-linejoin="round"/><polygon points="562.88,700.2 590.59,702.44 592.5,702.44 564.64,700.2" fill="#9b886b" stroke="#9b886b" stroke-width="1.35" stroke-linejoin="round"/><polygon points="199.23,824.98 196.7,834.07 584.7,829.93 565.65,821.29" fill="#bea17e" stroke="#896d4b" stroke-width="1.35" stroke-linejoin="round"/><polygon points="198.94,701 195.24,703.34 592.25,702.57 564.72,700.35" fill="#bea17e" stroke="#896d4b" stroke-width="1.35" stroke-linejoin="round"/><polygon points="201.06,832.77 201.03,824.75 198.56,833.98 198.59,842.49" fill="#9b886b" stroke="#9b886b" stroke-width="1.35" stroke-linejoin="round"/><polygon points="199.18,824.77 196.6,834 198.56,833.98 201.03,824.75" fill="#9b886b" stroke="#9b886b" stroke-width="1.35" stroke-linejoin="round"/><polygon points="583.04,838.17 584.9,838.15 584.94,829.86 583.07,829.88" fill="#9b886b" stroke="#9b886b" stroke-width="1.35" stroke-linejoin="round"/><polygon points="200.78,710.98 200.74,700.85 197.15,703.2 197.19,714.23" fill="#9b886b" stroke="#9b886b" stroke-width="1.35" stroke-linejoin="round"/><polygon points="198.89,700.85 195.14,703.2 197.15,703.2 200.74,700.85" fill="#9b886b" stroke="#9b886b" stroke-width="1.35" stroke-linejoin="round"/><polygon points="196.73,842.28 584.67,837.92 584.7,829.93 196.7,834.07" fill="#b18e65" stroke="#896d4b" stroke-width="1.35" stroke-linejoin="round"/><polygon points="590.55,713.18 592.45,713.18 592.5,702.44 590.59,702.44" fill="#9b886b" stroke="#9b886b" stroke-width="1.35" stroke-linejoin="round"/><polygon points="196.63,842.51 198.59,842.49 198.56,833.98 196.6,834" fill="#9b886b" stroke="#9b886b" stroke-width="1.35" stroke-linejoin="round"/><polygon points="195.28,714.07 592.21,713.01 592.25,702.57 195.24,703.34" fill="#b18e65" stroke="#896d4b" stroke-width="1.35" stroke-linejoin="round"/><polygon points="195.19,714.24 197.19,714.23 197.15,703.2 195.14,703.2" fill="#9b886b" stroke="#9b886b" stroke-width="1.35" stroke-linejoin="round"/></g></svg>
